<?xml version="1.0" encoding="UTF-8"?>
<svg width="1200px" height="1200px" viewBox="0 0 1200 1200" xmlns="http://www.w3.org/2000/svg" xmlns:xlink="http://www.w3.org/1999/xlink" version="1.1">
 <!-- Generated by Pixelmator Pro 1.8 -->
 <g id="Square">
  <defs>
   <path id="Path" d="M563.461 100.927 C530.992 114.575 141.286 347.805 141.286 347.805 141.286 347.805 98.629 362.617 97.369 409.931 96.109 457.246 98.582 779.478 98.582 779.478 98.582 779.478 101.206 821.069 130.717 839.462 160.228 857.856 555.963 1093.194 555.963 1093.194 555.963 1093.194 586.216 1111.203 630.944 1093.194 675.671 1075.186 1061.546 840.534 1061.546 840.534 1061.546 840.534 1100.762 824.858 1102.25 767.695 1103.738 710.533 1104.392 412.074 1104.392 412.074 1104.392 412.074 1103.154 381.141 1064.76 356.374 1026.365 331.606 626 99 626 99 626 99 595.931 87.278 563.461 100.927 Z"/>
  </defs>
  <use id="Path-1" xlink:href="#Path" fill="#f1f1f1" fill-opacity="1" stroke="none"/>
  <defs>
   <path id="stroke-path" d="M600.203 1123.438 L613.406 1121.719 628.266 1118.047 640.813 1113.5 655.531 1106.328 705.375 1078.797 788.969 1030.219 893.656 968.031 1072.5 860.203 1078.656 856.906 1085.031 852.578 1092.016 846.766 1099.156 839.406 1104.281 833.016 1110.516 823.328 1115.672 812.828 1119.875 800.938 1122.953 787.516 1124.688 770.344 1125.375 725.688 1126.906 410.25 1125.203 400.156 1121.141 387.922 1115.719 376.922 1107.859 365.234 1097.25 353.422 1086.984 344.547 1077.156 337.594 1061.188 327.766 939.297 255.703 635.031 78.219 624.875 75.172 613.203 72.922 602.281 71.922 592.844 71.875 582.625 72.688 572.016 74.609 564.203 76.703 554.469 80.266 539.203 88 519.656 98.828 456.75 134.938 309.734 221.375 130.906 327.813 123.141 331.438 113.766 337.219 103.547 345.422 95.438 353.891 87.484 364.938 81.313 377.266 77.516 389.109 75.578 399.563 74.875 408.938 74.594 429.656 74.828 579.938 76.094 781.266 78.25 795.391 82.719 811.25 88.063 823.859 95.578 836.453 102.609 845.141 108.859 851.234 115.719 856.578 122.391 860.797 230.391 925.484 546.031 1113.484 557.984 1118.5 571.281 1121.891 584.781 1123.563 Z"/>
  </defs>
  <use id="Path-2" stroke="#272727" stroke-opacity="1" stroke-linecap="round" fill="none" stroke-width="45" xlink:href="#stroke-path"/>
  <path id="Path-3" d="M596 138 L146.76 390.918 1046.574 390.918 Z" fill="#3598db" fill-opacity="1" stroke="none"/>
  <path id="Polygon-copy" d="M593 1058 L1043.36 803.847 143.547 803.847 Z" fill="#3598db" fill-opacity="1" stroke="none"/>
  <path id="TRL-" d="M807.757 781.137 L1036.01 781.137 1036.01 684.361 904.044 684.361 904.044 414.563 807.757 414.563 Z M794.56 781.137 L716.846 648.193 C743.24 623.754 760.347 588.563 760.347 549.462 760.347 475.17 699.74 414.563 625.447 414.563 L470.997 414.563 470.997 781.137 567.284 781.137 567.284 683.872 626.914 683.872 683.61 781.137 Z M567.284 495.698 L626.914 495.698 C656.24 495.698 679.7 519.158 679.7 548.484 679.7 577.81 656.24 600.782 626.914 600.782 L567.284 600.782 Z M149.878 509.872 L245.188 509.872 245.188 781.137 341.475 781.137 341.475 509.872 438.739 509.872 438.739 414.074 149.878 414.074 Z" fill="#272727" fill-opacity="1" stroke="none"/>
 </g>
</svg>
